<?xml version="1.0" encoding="UTF-8"?>
<svg xmlns="http://www.w3.org/2000/svg" width="96" height="32" viewBox="0 0 96 32">
  <g id="busywidget">
    <rect x="15" y="3" width="2" height="5.85" fill="#5eead4" fill-opacity="0.25" transform="rotate(0 16 16)"/>
    <rect x="15" y="3" width="2" height="5.85" fill="#5eead4" fill-opacity="0.36" transform="rotate(45 16 16)"/>
    <rect x="15" y="3" width="2" height="5.85" fill="#5eead4" fill-opacity="0.46" transform="rotate(90 16 16)"/>
    <rect x="15" y="3" width="2" height="5.85" fill="#5eead4" fill-opacity="0.57" transform="rotate(135 16 16)"/>
    <rect x="15" y="3" width="2" height="5.85" fill="#5eead4" fill-opacity="0.68" transform="rotate(180 16 16)"/>
    <rect x="15" y="3" width="2" height="5.85" fill="#5eead4" fill-opacity="0.79" transform="rotate(225 16 16)"/>
    <rect x="15" y="3" width="2" height="5.85" fill="#5eead4" fill-opacity="0.89" transform="rotate(270 16 16)"/>
    <rect x="15" y="3" width="2" height="5.85" fill="#5eead4" fill-opacity="1.00" transform="rotate(315 16 16)"/>
  </g>
  <g id="22-22-busywidget">
    <rect x="42" y="6" width="2" height="4.5" fill="#5eead4" fill-opacity="0.25" transform="rotate(0 43 16)"/>
    <rect x="42" y="6" width="2" height="4.5" fill="#5eead4" fill-opacity="0.36" transform="rotate(45 43 16)"/>
    <rect x="42" y="6" width="2" height="4.5" fill="#5eead4" fill-opacity="0.46" transform="rotate(90 43 16)"/>
    <rect x="42" y="6" width="2" height="4.5" fill="#5eead4" fill-opacity="0.57" transform="rotate(135 43 16)"/>
    <rect x="42" y="6" width="2" height="4.5" fill="#5eead4" fill-opacity="0.68" transform="rotate(180 43 16)"/>
    <rect x="42" y="6" width="2" height="4.5" fill="#5eead4" fill-opacity="0.79" transform="rotate(225 43 16)"/>
    <rect x="42" y="6" width="2" height="4.5" fill="#5eead4" fill-opacity="0.89" transform="rotate(270 43 16)"/>
    <rect x="42" y="6" width="2" height="4.5" fill="#5eead4" fill-opacity="1.00" transform="rotate(315 43 16)"/>
  </g>
  <g id="16-16-busywidget">
    <rect x="63" y="9" width="2" height="3.15" fill="#5eead4" fill-opacity="0.25" transform="rotate(0 64 16)"/>
    <rect x="63" y="9" width="2" height="3.15" fill="#5eead4" fill-opacity="0.36" transform="rotate(45 64 16)"/>
    <rect x="63" y="9" width="2" height="3.15" fill="#5eead4" fill-opacity="0.46" transform="rotate(90 64 16)"/>
    <rect x="63" y="9" width="2" height="3.15" fill="#5eead4" fill-opacity="0.57" transform="rotate(135 64 16)"/>
    <rect x="63" y="9" width="2" height="3.15" fill="#5eead4" fill-opacity="0.68" transform="rotate(180 64 16)"/>
    <rect x="63" y="9" width="2" height="3.15" fill="#5eead4" fill-opacity="0.79" transform="rotate(225 64 16)"/>
    <rect x="63" y="9" width="2" height="3.15" fill="#5eead4" fill-opacity="0.89" transform="rotate(270 64 16)"/>
    <rect x="63" y="9" width="2" height="3.15" fill="#5eead4" fill-opacity="1.00" transform="rotate(315 64 16)"/>
  </g>
  <circle id="stopped" cx="84" cy="16" r="7" fill="none" stroke="#0d6b60" stroke-width="2"/>
</svg>
